<?xml version="1.0" encoding="UTF-8"?> <!-- Generator: Adobe Illustrator 25.2.3, SVG Export Plug-In . SVG Version: 6.00 Build 0) --> <svg xmlns="http://www.w3.org/2000/svg" xmlns:xlink="http://www.w3.org/1999/xlink" version="1.1" id="Слой_1" x="0px" y="0px" viewBox="0 0 738.5 267.9" style="enable-background:new 0 0 738.5 267.9;" xml:space="preserve"> <style type="text/css"> .st0{fill:#FFFFFF;} .st1{fill:#A5A5A5;} .st2{fill:#FCB11A;} .st3{fill:#FFCC00;} </style> <path class="st0" d="M285.4,147.4v48.4h-28.5v-109h40.2l20.8,60.2l20.8-60.1h40.2v109h-28.5v-48.5l-16.8,48.4h-31.6L285.4,147.4z"></path> <path class="st0" d="M457.7,127.5c-1-1.9-2.2-3.7-3.6-5.3c-4.4-5.2-9.7-7.7-15.7-7.7h-42.2L387,86.8h51.5c14.1,0,26.1,5.4,36,16.1 c9.8,10.7,14.7,23.5,14.7,38.4c0,14.9-4.9,27.7-14.8,38.4c-9.9,10.7-21.9,16.1-36,16.1h-50.8v-27.7h50.8c6,0,11.2-2.6,15.7-7.8 c1.4-1.6,2.6-3.3,3.6-5.2h-60v-27.7H457.7z"></path> <path class="st0" d="M547.6,168.2h50.8v27.6h-50.8c-14.2,0-26.2-5.4-36-16.1s-14.8-23.5-14.8-38.4c0-14.9,4.9-27.7,14.7-38.4 c9.9-10.7,21.9-16.1,36-16.1H599l-9.2,27.7h-42.2c-6,0-11.2,2.6-15.7,7.8c-4.5,5.2-6.7,11.5-6.7,19.1c0,7.5,2.2,13.9,6.7,19.1 S541.6,168.2,547.6,168.2z"></path> <path class="st0" d="M635,127.2l29.3-40.3l37.3,0.1l-37.8,50.3l41.8,58.6h-37.2L635,148.1v47.7h-28.4v-109H635V127.2z"></path> <path class="st0" d="M258.3,238.9c0.1-1.1,0.3-2.1,0.4-3.2s0.3-2.2,0.4-3.5l0.8-6.8c0.2-1.2,0.3-2.4,0.4-3.5s0.3-2.2,0.4-3.4h4.8 c0.5,1.2,0.9,2.3,1.3,3.3l1.2,3.2l2.4,6.2h0.3l2.4-6.2c0.4-1.1,0.8-2.1,1.2-3.1s0.8-2.2,1.3-3.4h4.7c0.1,1.1,0.3,2.3,0.4,3.4 l0.5,3.5l0.9,6.9c0.1,1.2,0.3,2.4,0.4,3.4s0.3,2.1,0.4,3.2h-4.5c-0.2-1.4-0.3-2.8-0.5-4.1s-0.3-2.5-0.5-3.6l-0.6-4.8h-0.3l-1.8,5.2 c-0.4,1.3-0.9,2.5-1.3,3.8s-0.8,2.4-1.2,3.5h-3.1l-0.9-2.3c-0.3-0.8-0.6-1.7-1-2.5l-1-2.5l-2-5.2h-0.3l-0.6,4.8 c-0.1,1.1-0.3,2.4-0.4,3.6s-0.3,2.6-0.5,4.1H258.3z"></path> <path class="st0" d="M292.9,239.3c-1.2,0-2.3-0.2-3.4-0.6c-0.9-0.4-1.7-0.9-2.4-1.7c-0.6-0.7-1.1-1.5-1.4-2.4 c-0.3-0.9-0.5-1.9-0.5-2.9c0-1.3,0.3-2.6,0.9-3.8c0.6-1.1,1.4-2.1,2.5-2.7c1.3-0.7,2.7-1,4.1-1c1.1,0,2.3,0.2,3.3,0.6 c0.9,0.3,1.7,0.9,2.4,1.6c0.6,0.7,1.1,1.5,1.4,2.4c0.3,0.9,0.5,1.9,0.5,2.9c0,1.3-0.3,2.7-0.9,3.9c-0.6,1.1-1.5,2.1-2.5,2.7 C295.7,238.9,294.3,239.3,292.9,239.3z M292.9,235.8c0.6,0,1.3-0.2,1.8-0.6c0.5-0.4,0.8-0.9,1-1.5c0.2-0.6,0.4-1.3,0.4-2 c0-0.7-0.1-1.5-0.4-2.2c-0.2-0.6-0.6-1-1.1-1.4c-0.5-0.3-1.1-0.5-1.7-0.5c-0.6,0-1.3,0.2-1.8,0.5c-0.5,0.4-0.9,0.9-1.1,1.4 c-0.5,1.3-0.5,2.7,0,4c0.2,0.6,0.6,1.1,1.1,1.5C291.6,235.6,292.2,235.8,292.9,235.8L292.9,235.8z"></path> <path class="st0" d="M303,238.9v-14.3l4.2-0.1v14.4H303z M305.6,233.4v-3.3h8.2v3.3H305.6z M312,238.9v-14.3h4.2v14.3H312z"></path> <path class="st0" d="M322.6,238.9v-13.6l1.4,2.7h-5.6v-3.3h12.7v3.3h-5.6l1.3-2.7v13.6L322.6,238.9z"></path> <path class="st0" d="M336.8,239.2c-0.7,0-1.5-0.2-2.1-0.5c-0.6-0.3-1.1-0.8-1.4-1.4c-0.4-0.7-0.5-1.4-0.5-2.2c0-0.7,0.1-1.4,0.4-2 c0.3-0.5,0.6-1,1.1-1.3c0.5-0.3,1-0.6,1.5-0.8c0.5-0.2,1-0.3,1.6-0.4l4-0.6c0-0.5-0.1-0.9-0.3-1.3c-0.2-0.3-0.6-0.6-1-0.6 c-0.5-0.1-1-0.2-1.5-0.2c-0.4,0-0.7,0-1.1,0.1c-0.4,0.1-0.8,0.1-1.2,0.2c-0.4,0.1-0.8,0.2-1.3,0.4c-0.5,0.2-0.9,0.3-1.3,0.6 l-0.2-3.6c0.4-0.1,0.8-0.3,1.2-0.4s1-0.3,1.5-0.4s1.1-0.2,1.7-0.3c0.6-0.1,1.2-0.1,1.8-0.1c1,0,2.1,0.1,3,0.5 c0.8,0.3,1.5,0.9,1.9,1.6c0.5,0.9,0.7,1.9,0.7,2.9v9.6h-3.6l-0.3-1.9H341c-0.3,0.4-0.6,0.8-1,1.1C339.1,238.9,338,239.3,336.8,239.2 L336.8,239.2z M338.5,235.9c0.3,0,0.7-0.1,1-0.2c0.3-0.2,0.7-0.4,0.9-0.7c0.3-0.3,0.5-0.6,0.7-1v-2.2c-0.1,0.1-0.3,0.2-0.4,0.2 c-0.3,0.1-0.5,0.2-0.8,0.2l-1.4,0.3c-0.3,0.1-0.6,0.2-0.9,0.4c-0.2,0.2-0.4,0.4-0.6,0.6c-0.1,0.3-0.2,0.6-0.2,0.9 c0,0.4,0.1,0.9,0.5,1.2C337.7,235.8,338.1,235.9,338.5,235.9z"></path> <path class="st0" d="M346.8,238.9l1.9-2.6c0.6-0.9,1.3-1.7,1.9-2.6l2.4-3.3l-0.2,1.9l-1.9-2.5l-1.9-2.6c-0.6-0.8-1.3-1.7-1.9-2.6 l4.8-0.1l1.2,1.9l1.2,1.9l1.4,2.1h1.3v2.8h-1.3l-1.5,2.2c-0.4,0.6-0.8,1.2-1.1,1.8s-0.8,1.2-1.1,1.8H346.8z M356.6,238.9v-14.3h4.1 v14.3H356.6z M365.3,238.9l-1.2-1.8c-0.4-0.6-0.8-1.2-1.2-1.8l-1.5-2.2h-1.2v-2.8h1.3l1.3-2l1.2-1.9c0.4-0.6,0.8-1.2,1.2-1.9h4.9 l-1.9,2.6l-1.9,2.6l-1.9,2.5l-0.2-1.9l2.3,3.3l1.9,2.6l2,2.6L365.3,238.9z"></path> <path class="st0" d="M384.1,239.2c-0.6,0-1.2,0-1.8-0.1s-1.2-0.1-1.7-0.2c-0.5-0.1-1.1-0.2-1.6-0.4c-0.5-0.2-0.9-0.4-1.4-0.6 l0.3-4.2c0.4,0.3,0.9,0.6,1.4,0.8c0.4,0.2,0.9,0.4,1.4,0.5c0.5,0.1,0.9,0.2,1.4,0.3c0.5,0.1,1,0.1,1.4,0.1c1.3,0.1,2.6-0.2,3.8-0.8 c0.9-0.5,1.7-1.2,2.1-2.1c0.5-1,0.7-2.1,0.7-3.1v-1.5c0-0.9-0.1-1.8-0.5-2.6c-0.3-0.7-0.7-1.3-1.3-1.8c-0.6-0.5-1.2-0.9-1.9-1.1 c-0.8-0.2-1.6-0.4-2.4-0.4c-0.7,0-1.3,0.1-2,0.2c-0.7,0.1-1.4,0.3-2.1,0.6c-0.8,0.3-1.5,0.7-2.2,1.1l-0.4-4.3 c0.4-0.2,0.9-0.4,1.4-0.6c0.6-0.2,1.1-0.4,1.7-0.5c0.6-0.2,1.3-0.3,1.9-0.4c0.7-0.1,1.3-0.1,2-0.1c1.5,0,3,0.2,4.4,0.8 c1.2,0.5,2.3,1.3,3.2,2.2c0.9,1,1.6,2.1,2,3.4c0.5,1.4,0.7,2.8,0.7,4.3c0,1.9-0.4,3.8-1.3,5.5c-0.8,1.6-2.1,2.9-3.6,3.7 C388.1,238.8,386.1,239.3,384.1,239.2z M381.1,230.4v-3.5h9.9v3.5H381.1L381.1,230.4z"></path> <path class="st0" d="M397.6,238.9v-14.3l4.2-0.1v14.4H397.6z M400.1,233.4v-3.3h8.2v3.3H400.1z M406.6,238.9v-14.3h4.2v14.3H406.6z"></path> <path class="st0" d="M421.4,239.2c-1.6,0.1-3.1-0.3-4.5-1c-1.1-0.6-2-1.5-2.6-2.7c-0.6-1.2-0.8-2.6-0.8-3.9c0-1.3,0.2-2.7,0.8-3.9 c0.5-1.1,1.3-2,2.3-2.6c1.2-0.7,2.5-1,3.8-0.9c1.1,0,2.3,0.2,3.3,0.7c0.9,0.5,1.7,1.2,2.1,2.1c0.5,1.1,0.8,2.3,0.7,3.5 c0,0.4,0,0.7,0,1s-0.1,0.6-0.1,0.9l-3.7-1.4c0-0.1,0-0.3,0-0.4s0-0.3,0-0.4c0.1-0.8-0.2-1.6-0.7-2.3c-0.4-0.5-1.1-0.8-1.8-0.8 c-0.5,0-1,0.2-1.4,0.5c-0.4,0.3-0.8,0.8-1,1.3c-0.2,0.6-0.4,1.3-0.4,2v0.7c0,0.7,0.1,1.5,0.5,2.1c0.3,0.6,0.8,1.1,1.4,1.4 c0.8,0.3,1.6,0.5,2.4,0.5c0.4,0,0.9,0,1.3-0.1c0.5-0.1,1-0.2,1.5-0.3c0.5-0.1,1-0.3,1.5-0.6l0.1,3.6c-0.4,0.2-0.8,0.3-1.3,0.5 c-0.5,0.2-1.1,0.3-1.7,0.3C422.7,239.1,422,239.2,421.4,239.2z M415.1,232.4v-2.3l8.9-0.2l2.5,0.7v1.8L415.1,232.4z"></path> <path class="st0" d="M429.2,244.5v-19.9l3.8-0.2l0.1,2h0.3c0.3-0.4,0.6-0.8,1-1.1c0.4-0.3,0.9-0.6,1.4-0.7c0.5-0.2,1.1-0.3,1.7-0.3 c1.1,0,2.3,0.3,3.2,1c0.9,0.7,1.6,1.6,2,2.7c0.5,1.2,0.7,2.5,0.7,3.8c0,1.3-0.2,2.5-0.6,3.7c-0.4,1.1-1,2-1.9,2.8 c-1.4,1-3.2,1.3-4.8,0.8c-0.5-0.2-0.9-0.4-1.3-0.7c-0.4-0.3-0.7-0.6-1-1h-0.3v7L429.2,244.5z M436,235.6c0.6,0,1.2-0.2,1.7-0.6 c0.5-0.4,0.8-0.9,1-1.4c0.4-1.2,0.4-2.6,0-3.8c-0.2-0.6-0.5-1-1-1.4c-0.5-0.4-1.1-0.6-1.7-0.5c-0.3,0-0.7,0-1,0.1 c-0.3,0.1-0.6,0.2-0.9,0.4c-0.3,0.2-0.5,0.4-0.7,0.7v4.8c0.2,0.3,0.4,0.6,0.6,0.8c0.2,0.2,0.5,0.4,0.8,0.6 C435.2,235.5,435.6,235.6,436,235.6L436,235.6z"></path> <path class="st0" d="M446,238.9v-14.3h10.4v3.4h-8.6l2.5-2.7v13.6L446,238.9z"></path> <path class="st0" d="M465.5,239.3c-1.2,0-2.3-0.2-3.4-0.6c-0.9-0.4-1.7-0.9-2.4-1.7c-0.6-0.7-1.1-1.5-1.4-2.4 c-0.3-0.9-0.5-1.9-0.5-2.9c0-1.3,0.3-2.6,0.9-3.8c0.6-1.1,1.5-2,2.5-2.7c1.3-0.7,2.7-1,4.1-1c1.1,0,2.3,0.2,3.3,0.6 c0.9,0.3,1.7,0.9,2.4,1.6c0.6,0.7,1.1,1.5,1.4,2.4c0.3,0.9,0.5,1.9,0.5,2.9c0,1.3-0.3,2.7-0.9,3.9c-0.6,1.1-1.5,2.1-2.5,2.7 C468.3,238.9,466.9,239.3,465.5,239.3z M465.5,235.8c0.6,0,1.3-0.2,1.8-0.6c0.5-0.4,0.8-0.9,1-1.5c0.2-0.6,0.4-1.3,0.4-2 c0-0.7-0.1-1.5-0.4-2.2c-0.2-0.5-0.6-1-1.1-1.4c-0.5-0.3-1.1-0.5-1.7-0.5c-0.6,0-1.3,0.2-1.8,0.5c-0.5,0.4-0.9,0.9-1.1,1.4 c-0.5,1.3-0.5,2.7,0,4c0.2,0.6,0.6,1.1,1.1,1.5C464.2,235.6,464.8,235.8,465.5,235.8L465.5,235.8z"></path> <path class="st0" d="M491.3,239.3c-1.5,0-3-0.2-4.5-0.8c-1.3-0.5-2.4-1.2-3.4-2.2c-0.9-0.9-1.7-2.1-2.1-3.3c-1.2-3.2-1-6.7,0.5-9.8 c0.8-1.6,2-2.9,3.6-3.8c1.7-1,3.6-1.4,5.6-1.4c0.7,0,1.3,0,2,0.1c0.6,0.1,1.2,0.2,1.9,0.4c0.6,0.1,1.1,0.3,1.6,0.5 c0.5,0.2,0.9,0.4,1.4,0.6l-0.4,4.4c-0.7-0.4-1.4-0.8-2.1-1.1c-0.6-0.3-1.3-0.5-2-0.6c-0.6-0.1-1.2-0.2-1.8-0.2 c-1.1,0-2.2,0.2-3.1,0.8c-0.9,0.5-1.7,1.3-2.1,2.3c-0.6,1.1-0.8,2.4-0.8,3.6c0,0.9,0.1,1.7,0.4,2.6c0.3,0.8,0.7,1.5,1.2,2.1 c0.5,0.6,1.2,1.1,2,1.4c0.9,0.4,1.9,0.6,2.8,0.5c0.5,0,0.9,0,1.4-0.1c0.5-0.1,0.9-0.2,1.4-0.3c0.5-0.1,0.9-0.3,1.4-0.6 c0.5-0.3,0.9-0.5,1.4-0.9l0.3,4.3c-0.4,0.2-0.9,0.4-1.4,0.6c-0.5,0.2-1,0.3-1.6,0.4c-0.5,0.1-1.1,0.2-1.7,0.2 S491.8,239.3,491.3,239.3z"></path> <path class="st0" d="M503.3,238.9v-13.6l1.3,2.7H499v-3.3h12.7v3.4h-5.5l1.3-2.7v13.6L503.3,238.9z"></path> <path class="st0" d="M513.9,244.5v-19.9l3.8-0.2l0.1,2h0.3c0.6-0.9,1.4-1.6,2.4-1.9c0.5-0.2,1.1-0.3,1.7-0.3c1.1,0,2.3,0.3,3.2,1 c0.9,0.7,1.6,1.6,1.9,2.7c0.5,1.2,0.7,2.5,0.7,3.8c0,1.3-0.2,2.5-0.6,3.7c-0.4,1.1-1,2-1.9,2.8c-1.4,1-3.2,1.3-4.8,0.8 c-0.5-0.2-0.9-0.4-1.3-0.7c-0.4-0.3-0.7-0.6-1-1h-0.3v7L513.9,244.5z M520.7,235.6c0.6,0,1.2-0.2,1.7-0.6c0.5-0.4,0.8-0.9,1-1.4 c0.4-1.2,0.4-2.6,0-3.8c-0.2-0.6-0.5-1-1-1.4c-0.5-0.4-1.1-0.6-1.7-0.5c-0.3,0-0.7,0-1,0.1c-0.3,0.1-0.6,0.2-0.9,0.4 c-0.3,0.2-0.5,0.4-0.7,0.7v4.8c0.2,0.3,0.4,0.6,0.6,0.8c0.2,0.2,0.5,0.4,0.8,0.6C520,235.5,520.4,235.6,520.7,235.6z"></path> <path class="st0" d="M537.7,239.3c-1.2,0-2.3-0.2-3.4-0.6c-0.9-0.4-1.7-0.9-2.3-1.6c-0.6-0.7-1.1-1.5-1.4-2.4 c-0.3-0.9-0.5-1.9-0.5-2.9c0-1.3,0.3-2.6,0.9-3.8c0.6-1.1,1.4-2,2.5-2.7c1.3-0.7,2.7-1,4.1-1c1.1,0,2.3,0.2,3.3,0.6 c0.9,0.3,1.7,0.9,2.4,1.6c0.6,0.7,1.1,1.5,1.4,2.4c0.3,0.9,0.5,1.9,0.5,2.9c0,1.3-0.3,2.7-0.9,3.9c-0.6,1.1-1.5,2.1-2.5,2.7 C540.6,239,539.1,239.3,537.7,239.3z M537.7,235.8c0.6,0,1.3-0.2,1.8-0.6c0.5-0.4,0.8-0.9,1-1.5c0.2-0.6,0.4-1.3,0.3-2 c0-0.7-0.1-1.5-0.4-2.2c-0.2-0.6-0.6-1-1.1-1.4c-0.5-0.3-1.1-0.5-1.7-0.5c-0.6,0-1.3,0.2-1.8,0.5c-0.5,0.4-0.9,0.9-1.1,1.4 c-0.5,1.3-0.5,2.7,0,4c0.2,0.6,0.6,1.1,1.1,1.5C536.4,235.6,537,235.8,537.7,235.8L537.7,235.8z"></path> <path class="st0" d="M547.8,238.9v-14.3l4.1-0.1v8.7h0.3l2.1-3.7l1.4-2.4c0.5-0.8,0.9-1.6,1.3-2.4h4.2v14.3h-4.1v-8.6h-0.3l-2.1,3.7 l-1.4,2.4c-0.5,0.8-0.9,1.6-1.4,2.4H547.8z M554.5,223c-1.5,0.1-3-0.4-4.2-1.4c-1-1-1.5-2.4-1.4-3.8l3.4-0.1c0,0.7,0.1,1.4,0.5,2 c0.4,0.6,1.1,0.9,1.7,0.8c0.5,0,0.9-0.1,1.3-0.4c0.3-0.2,0.6-0.6,0.7-0.9c0.1-0.5,0.2-0.9,0.2-1.4h3.4c0.1,1.4-0.4,2.8-1.3,3.8 C557.6,222.6,556.1,223.1,554.5,223z"></path> <path class="st0" d="M570.3,238.9v-20.4h4.7v20.4L570.3,238.9z M582.1,238.9c-0.6-0.9-1.2-1.8-1.8-2.6l-1.6-2.3l-2.7-3.9h-1.3v-3.7 h1.3l2.4-3.1l1.7-2.2l2-2.6h5.4c-0.9,1.1-1.8,2.1-2.6,3.2s-1.7,2.1-2.5,3.1l-3.2,4l-0.1-2.1l3.6,5l1.8,2.5l1.8,2.6 c0.6,0.8,1.1,1.6,1.6,2.2L582.1,238.9z"></path> <path class="st0" d="M595.7,239.3c-1.2,0-2.3-0.2-3.4-0.6c-0.9-0.4-1.7-0.9-2.4-1.7c-0.6-0.7-1.1-1.5-1.4-2.4 c-0.3-0.9-0.5-1.9-0.5-2.9c0-1.3,0.3-2.6,0.9-3.8c0.6-1.1,1.4-2.1,2.5-2.7c1.3-0.7,2.7-1,4.1-1c1.1,0,2.2,0.2,3.3,0.6 c0.9,0.3,1.7,0.9,2.4,1.6c0.6,0.7,1.1,1.5,1.4,2.4c0.3,0.9,0.5,1.9,0.5,2.9c0,1.3-0.3,2.7-0.9,3.9c-0.6,1.1-1.5,2.1-2.5,2.7 C598.5,238.9,597.1,239.3,595.7,239.3z M595.7,235.8c0.6,0,1.3-0.2,1.8-0.6c0.5-0.4,0.8-0.9,1-1.5c0.2-0.6,0.4-1.3,0.3-2 c0-0.7-0.1-1.5-0.4-2.2c-0.2-0.6-0.6-1-1.1-1.4c-0.5-0.3-1.1-0.5-1.7-0.5c-0.6,0-1.3,0.2-1.8,0.5c-0.5,0.4-0.9,0.9-1.1,1.4 c-0.5,1.3-0.5,2.7,0,4c0.2,0.6,0.6,1.1,1.1,1.5C594.4,235.6,595,235.8,595.7,235.8L595.7,235.8z"></path> <path class="st0" d="M604.9,238.9c0.1-1,0.2-2.1,0.3-3.1c0.1-1,0.2-2,0.3-3l0.2-2c0.1-1,0.2-2.1,0.3-3.1s0.2-2.1,0.3-3.1h4.7 c0.3,0.7,0.6,1.5,0.9,2.2s0.6,1.5,0.8,2.2l1.7,4.3h0.3l1.6-4.3c0.3-0.7,0.6-1.5,0.8-2.2s0.5-1.5,0.8-2.2h4.6c0.1,1,0.2,2.1,0.3,3.1 s0.2,2.1,0.3,3.1l0.2,2c0.1,0.9,0.2,1.9,0.3,2.9c0.1,1,0.2,2,0.3,3.1h-4c-0.1-0.9-0.2-1.8-0.3-2.7s-0.2-1.8-0.3-2.7l-0.3-3.4H619 l-1.2,3.6l-0.9,2.6c-0.3,0.9-0.6,1.7-0.9,2.6h-3c-0.3-0.9-0.6-1.7-0.9-2.6s-0.6-1.7-0.9-2.5l-1.3-3.7h-0.3l-0.4,3.4 c-0.1,0.9-0.2,1.8-0.3,2.8l-0.3,2.7L604.9,238.9z"></path> <path class="st0" d="M626.8,238.9v-14.3h13.3v14.3h-4.3v-13.6l1.7,2.7h-8.2l1.7-2.7v13.6H626.8z"></path> <path class="st0" d="M646.8,239.2c-0.7,0-1.5-0.2-2.1-0.5c-0.6-0.3-1.1-0.8-1.4-1.4c-0.4-0.7-0.5-1.4-0.5-2.2c0-0.7,0.1-1.4,0.4-2 c0.3-0.5,0.6-1,1.1-1.3c0.5-0.3,1-0.6,1.5-0.8c0.5-0.2,1-0.3,1.6-0.4l4-0.6c0-0.5-0.1-0.9-0.3-1.3c-0.2-0.3-0.6-0.6-1-0.6 c-0.5-0.1-1-0.2-1.6-0.2c-0.4,0-0.7,0-1,0.1c-0.4,0.1-0.8,0.1-1.2,0.2c-0.4,0.1-0.8,0.2-1.3,0.4c-0.5,0.2-0.9,0.3-1.3,0.6l-0.2-3.6 c0.3-0.1,0.8-0.3,1.2-0.4s1-0.3,1.5-0.4s1.1-0.2,1.7-0.3c0.6-0.1,1.2-0.1,1.8-0.1c1,0,2.1,0.1,3,0.5c0.8,0.3,1.5,0.9,1.9,1.6 c0.5,0.9,0.7,1.9,0.7,2.9v9.6h-3.6l-0.3-1.9h-0.3c-0.3,0.4-0.6,0.8-1,1.1c-0.4,0.4-0.9,0.6-1.4,0.9 C648.1,239.1,647.5,239.2,646.8,239.2z M648.6,235.9c0.3,0,0.7-0.1,1-0.2c0.3-0.2,0.7-0.4,0.9-0.7c0.3-0.3,0.5-0.6,0.7-1v-2.2 c-0.1,0.1-0.3,0.2-0.4,0.2c-0.3,0.1-0.5,0.2-0.8,0.2l-1.4,0.3c-0.3,0.1-0.6,0.2-0.9,0.4c-0.2,0.2-0.4,0.4-0.6,0.6 c-0.1,0.3-0.2,0.6-0.2,0.9c0,0.4,0.1,0.9,0.5,1.2C647.8,235.8,648.2,235.9,648.6,235.9z"></path> <path class="st0" d="M658.3,238.9v-14.3l4.2-0.1v14.4H658.3z M660.8,233.4v-3.3h8.2v3.3H660.8z M667.3,238.9v-14.3h4.2v14.3H667.3z"></path> <path class="st0" d="M674.8,238.9v-14.3l4.1-0.1v8.7h0.3l2.1-3.7l1.4-2.4l1.3-2.4h4.2v14.3h-4.1v-8.6h-0.3l-2.1,3.7l-1.4,2.4 c-0.5,0.8-0.9,1.6-1.4,2.4H674.8z"></path> <path class="st0" d="M690.4,238.9c0.4-0.7,0.9-1.4,1.3-2.1l1.3-2.1l1.9-2.9l1.3,1.6c-1,0-2-0.1-3-0.5c-0.7-0.3-1.3-0.8-1.7-1.5 c-0.4-0.7-0.6-1.5-0.5-2.3c-0.1-0.9,0.2-1.8,0.7-2.6c0.5-0.7,1.3-1.2,2.1-1.4c1.1-0.3,2.2-0.4,3.3-0.4h6.8v14.3h-4.1v-11.2h-2.3 c-0.4,0-0.7,0.1-1.1,0.2c-0.8,0.2-1.2,0.9-1.2,1.7c0,0.3,0.1,0.7,0.2,1c0.2,0.2,0.4,0.4,0.6,0.5c0.3,0.1,0.5,0.2,0.8,0.2 c0.2,0,0.5,0,0.8,0.1h2.7v2.6h-3.8l2.1-1.3l-1.4,2.4c-0.4,0.6-0.8,1.2-1.1,1.9l-1.1,1.9H690.4z"></path> <polygon class="st1" points="164.9,94.3 228.3,157.8 228.3,179.3 164.9,115.9 "></polygon> <polygon class="st2" points="71.5,168.3 131,108.8 131,128 71.5,187.5 "></polygon> <polygon class="st2" points="164.9,59.6 228.3,123 228.3,144.6 164.9,81.2 "></polygon> <polygon class="st1" points="32.9,239.3 52.4,219.9 71.5,219.9 71.5,200.7 131,141.2 131,160.5 52.2,239.3 "></polygon> <polygon class="st3" points="164.9,46.4 164.9,23.5 228.3,86.8 228.3,109.8 "></polygon> <polygon class="st0" points="137.7,167 164.9,167 164.9,129.1 228.3,192.5 228.3,239.3 65.4,239.3 "></polygon> <polygon class="st3" points="477.8,153 474.2,162.3 489.4,162.6 456.5,222.5 522,151.2 506.1,151.2 511.6,136.6 497.9,136.6 512.2,66.6 462.8,153 "></polygon> </svg> 