<?xml version="1.0" encoding="UTF-8"?> <svg xmlns="http://www.w3.org/2000/svg" id="Слой_1" data-name="Слой 1" viewBox="0 0 738.55 267.93"><defs><style>.cls-1{fill:#fff;}.cls-2{fill:#fc0;}</style></defs><path class="cls-1" d="M285.36,147.43v48.39H256.89v-109h40.18L317.88,147l20.82-60.1h40.17v109H350.41V147.43l-16.75,48.39H302.11Z"></path><path class="cls-1" d="M457.67,127.51a30,30,0,0,0-3.58-5.29q-6.66-7.73-15.69-7.72H396.19L387,86.85h51.47q21.15,0,36,16.1,14.72,16,14.71,38.38t-14.8,38.43q-14.79,16.06-36,16.06H387.57V168.17H438.4q9,0,15.69-7.81a27.36,27.36,0,0,0,3.58-5.2h-60V127.51Z"></path><path class="cls-1" d="M547.61,168.17h50.83v27.65H547.61q-21.23,0-36-16.06t-14.8-38.43q0-22.35,14.72-38.38,14.88-16.1,36-16.1H599l-9.19,27.65H547.61q-9,0-15.69,7.76t-6.67,19.07q0,11.31,6.67,19.07T547.61,168.17Z"></path><path class="cls-1" d="M635,127.18l29.28-40.33,37.32.08-37.81,50.34,41.8,58.55H668.37L635,148.08v47.74H606.57v-109H635Z"></path><path class="cls-1" d="M258.33,238.87c.14-1.07.28-2.13.41-3.2s.28-2.23.43-3.47l.84-6.84c.16-1.23.31-2.39.44-3.48s.28-2.23.42-3.39h4.76c.46,1.16.89,2.27,1.31,3.34l1.23,3.16,2.43,6.23h.32l2.36-6.21c.4-1.06.79-2.11,1.19-3.15s.81-2.16,1.25-3.37h4.7q.22,1.71.42,3.36l.45,3.53.88,6.86c.15,1.24.29,2.38.43,3.43s.28,2.11.41,3.2h-4.47c-.18-1.43-.34-2.79-.5-4.07s-.31-2.49-.45-3.62l-.6-4.83h-.31l-1.77,5.19c-.43,1.28-.86,2.54-1.3,3.79s-.83,2.44-1.21,3.54h-3.11l-.87-2.3c-.31-.82-.62-1.66-.95-2.51l-1-2.51-2-5.2h-.31l-.59,4.8c-.13,1.14-.28,2.35-.43,3.64s-.33,2.65-.5,4.08Z"></path><path class="cls-1" d="M292.87,239.26a8.57,8.57,0,0,1-3.38-.62,6.43,6.43,0,0,1-2.37-1.67,6.89,6.89,0,0,1-1.4-2.42,8.78,8.78,0,0,1-.47-2.85,8.28,8.28,0,0,1,.87-3.83,6.34,6.34,0,0,1,2.54-2.67,8.12,8.12,0,0,1,4.13-1,8.9,8.9,0,0,1,3.31.57,6.45,6.45,0,0,1,2.37,1.58,6.64,6.64,0,0,1,1.42,2.39,9.06,9.06,0,0,1,.47,2.94,8.4,8.4,0,0,1-.87,3.86,6.54,6.54,0,0,1-2.54,2.7A7.81,7.81,0,0,1,292.87,239.26Zm0-3.49a2.63,2.63,0,0,0,1.76-.58,3.67,3.67,0,0,0,1.05-1.51,5.65,5.65,0,0,0,.35-2,5.41,5.41,0,0,0-.4-2.16,3.1,3.1,0,0,0-1.12-1.36,3,3,0,0,0-1.66-.47,2.89,2.89,0,0,0-1.78.53,3.19,3.19,0,0,0-1.08,1.43,5.62,5.62,0,0,0,0,4,3.55,3.55,0,0,0,1.08,1.51A2.76,2.76,0,0,0,292.86,235.77Z"></path><path class="cls-1" d="M303,238.87V224.61l4.22-.13v14.39Zm2.56-5.5v-3.3h8.19v3.3Zm6.46,5.5V224.61h4.22v14.26Z"></path><path class="cls-1" d="M322.63,238.87V225.28L324,228H318.4v-3.34h12.73V228h-5.57l1.33-2.67v13.59Z"></path><path class="cls-1" d="M336.77,239.21a4.35,4.35,0,0,1-2.15-.51,3.69,3.69,0,0,1-1.43-1.45,4.61,4.61,0,0,1-.51-2.22,4.34,4.34,0,0,1,.43-2,3.93,3.93,0,0,1,1.1-1.34,5.31,5.31,0,0,1,1.49-.78,9.9,9.9,0,0,1,1.58-.4l4-.62a2,2,0,0,0-.31-1.29,1.79,1.79,0,0,0-1-.65,5.48,5.48,0,0,0-1.55-.19,8.17,8.17,0,0,0-1.06.08,9.79,9.79,0,0,0-1.2.24c-.41.1-.84.23-1.28.38a12.71,12.71,0,0,0-1.34.56l-.2-3.64c.35-.13.76-.26,1.22-.39s.95-.26,1.48-.36,1.1-.2,1.7-.27a15.54,15.54,0,0,1,1.83-.1,7.94,7.94,0,0,1,3.05.52,4,4,0,0,1,1.94,1.64,5.55,5.55,0,0,1,.67,2.91v9.58h-3.64l-.27-1.9H341a6.76,6.76,0,0,1-1,1.07,4.72,4.72,0,0,1-3.23,1.17Zm1.7-3.3a2.46,2.46,0,0,0,1-.23,3.26,3.26,0,0,0,.93-.68,4.45,4.45,0,0,0,.74-1v-2.19a1.64,1.64,0,0,1-.44.24,5.39,5.39,0,0,1-.77.23l-1.41.3a2.39,2.39,0,0,0-.88.35,1.72,1.72,0,0,0-.58.62,1.8,1.8,0,0,0-.21.89,1.34,1.34,0,0,0,.49,1.16A1.93,1.93,0,0,0,338.47,235.91Z"></path><path class="cls-1" d="M346.84,238.87l1.93-2.6c.65-.87,1.29-1.73,1.92-2.59l2.36-3.31-.18,1.88L351,229.74l-1.92-2.57c-.64-.84-1.28-1.7-1.94-2.56l4.83-.13,1.24,1.91,1.23,1.9,1.35,2.05h1.28v2.83H355.8l-1.45,2.2c-.38.59-.77,1.17-1.15,1.75s-.77,1.16-1.15,1.75Zm9.78,0V224.61h4.12v14.26Zm8.69,0-1.17-1.76c-.38-.58-.77-1.16-1.17-1.75l-1.46-2.19h-1.22v-2.83h1.3l1.29-2,1.18-1.85c.39-.63.79-1.24,1.18-1.85h4.93l-1.9,2.56-1.9,2.55-1.89,2.53-.2-1.88,2.34,3.28,1.94,2.61,1.95,2.61Z"></path><path class="cls-1" d="M384.12,239.24c-.61,0-1.22,0-1.82-.08s-1.17-.13-1.73-.23a10.94,10.94,0,0,1-1.57-.42,7.85,7.85,0,0,1-1.37-.6l.26-4.24a8.55,8.55,0,0,0,1.36.83,7.76,7.76,0,0,0,1.4.54,10.07,10.07,0,0,0,1.43.29,9.77,9.77,0,0,0,1.44.1,8.26,8.26,0,0,0,3.84-.77,4.75,4.75,0,0,0,2.11-2.12,7,7,0,0,0,.67-3.15v-1.51a6.74,6.74,0,0,0-.45-2.57,4.76,4.76,0,0,0-1.28-1.83,5.4,5.4,0,0,0-1.93-1.1,7.69,7.69,0,0,0-2.4-.36,10.37,10.37,0,0,0-2,.2,12.25,12.25,0,0,0-2.06.61,13.59,13.59,0,0,0-2.16,1.08l-.36-4.28a10.61,10.61,0,0,1,1.37-.59,13.6,13.6,0,0,1,1.69-.49,18,18,0,0,1,1.91-.35,16.88,16.88,0,0,1,2-.13,11.63,11.63,0,0,1,4.4.79,9,9,0,0,1,3.24,2.22,9.83,9.83,0,0,1,2,3.38,12.55,12.55,0,0,1,.69,4.25,11.73,11.73,0,0,1-1.25,5.52,8.89,8.89,0,0,1-3.65,3.69A12,12,0,0,1,384.12,239.24Zm-3-8.84v-3.49H391v3.49h-9.86Z"></path><path class="cls-1" d="M397.58,238.87V224.61l4.22-.13v14.39Zm2.56-5.5v-3.3h8.19v3.3Zm6.46,5.5V224.61h4.22v14.26Z"></path><path class="cls-1" d="M421.38,239.24a9.22,9.22,0,0,1-4.51-1,6,6,0,0,1-2.57-2.67,8.87,8.87,0,0,1-.82-3.9,9.16,9.16,0,0,1,.77-3.89,5.83,5.83,0,0,1,2.31-2.64,7.17,7.17,0,0,1,3.82-.95,7.38,7.38,0,0,1,3.33.69,4.75,4.75,0,0,1,2.13,2.1,7.42,7.42,0,0,1,.74,3.53c0,.38,0,.72,0,1s-.06.59-.1.89l-3.66-1.39c0-.12,0-.25,0-.38s0-.26,0-.37a3.42,3.42,0,0,0-.68-2.27,2.15,2.15,0,0,0-1.75-.82,2.31,2.31,0,0,0-1.44.48,3.17,3.17,0,0,0-1,1.33,5.49,5.49,0,0,0-.35,2v.7a4.65,4.65,0,0,0,.45,2.13,3,3,0,0,0,1.39,1.35,5.32,5.32,0,0,0,2.42.48,9.74,9.74,0,0,0,1.32-.11,11,11,0,0,0,1.53-.33,8.91,8.91,0,0,0,1.45-.56l.14,3.6a9.1,9.1,0,0,1-1.29.46,11.48,11.48,0,0,1-1.67.33A15.58,15.58,0,0,1,421.38,239.24Zm-6.26-6.8v-2.29L424,230l2.49.7v1.77Z"></path><path class="cls-1" d="M429.19,244.49V224.61l3.78-.22.13,2h.34a4.78,4.78,0,0,1,1-1.15,4.56,4.56,0,0,1,1.38-.73,5.41,5.41,0,0,1,1.7-.25,5,5,0,0,1,3.17,1,6,6,0,0,1,1.95,2.68,10.54,10.54,0,0,1,.66,3.83,10.7,10.7,0,0,1-.63,3.71,6.3,6.3,0,0,1-1.89,2.77,5.39,5.39,0,0,1-4.8.82,4.64,4.64,0,0,1-1.27-.66,5,5,0,0,1-1-1h-.26v7Zm6.8-8.86a2.52,2.52,0,0,0,1.68-.56,3.28,3.28,0,0,0,1-1.44,5.8,5.8,0,0,0,0-3.8,3.23,3.23,0,0,0-1-1.41,2.62,2.62,0,0,0-1.68-.53,3.11,3.11,0,0,0-1,.15,3,3,0,0,0-.86.44,3,3,0,0,0-.68.69V234a3.78,3.78,0,0,0,.61.84,2.69,2.69,0,0,0,.84.56A2.85,2.85,0,0,0,436,235.63Z"></path><path class="cls-1" d="M446,238.87V224.61h10.42V228h-8.65l2.5-2.67v13.59Z"></path><path class="cls-1" d="M465.48,239.26a8.5,8.5,0,0,1-3.38-.62,6.55,6.55,0,0,1-2.38-1.67,7,7,0,0,1-1.4-2.42,8.77,8.77,0,0,1-.46-2.85,8.4,8.4,0,0,1,.86-3.83,6.43,6.43,0,0,1,2.55-2.67,8.08,8.08,0,0,1,4.12-1,8.86,8.86,0,0,1,3.31.57,6.29,6.29,0,0,1,2.37,1.58,6.5,6.5,0,0,1,1.42,2.39,8.8,8.8,0,0,1,.48,2.94,8.41,8.41,0,0,1-.88,3.86,6.54,6.54,0,0,1-2.54,2.7A7.77,7.77,0,0,1,465.48,239.26Zm0-3.49a2.66,2.66,0,0,0,1.77-.58,3.56,3.56,0,0,0,1-1.51,5.65,5.65,0,0,0,.35-2,5.24,5.24,0,0,0-.4-2.16,3.15,3.15,0,0,0-1.11-1.36,3,3,0,0,0-1.66-.47,2.87,2.87,0,0,0-1.78.53,3.21,3.21,0,0,0-1.09,1.43,5.76,5.76,0,0,0,0,4,3.57,3.57,0,0,0,1.09,1.51A2.75,2.75,0,0,0,465.46,235.77Z"></path><path class="cls-1" d="M491.25,239.26a12.64,12.64,0,0,1-4.48-.76,9.63,9.63,0,0,1-3.39-2.17,9.28,9.28,0,0,1-2.15-3.34,12.62,12.62,0,0,1,.5-9.76,9.16,9.16,0,0,1,3.57-3.78,10.73,10.73,0,0,1,5.57-1.38,16,16,0,0,1,2,.13,17.32,17.32,0,0,1,1.85.35,14,14,0,0,1,1.65.49,11.78,11.78,0,0,1,1.36.59l-.35,4.38a15,15,0,0,0-2.15-1.13,10.89,10.89,0,0,0-2-.61,8.92,8.92,0,0,0-1.81-.19,6.22,6.22,0,0,0-3.1.76,5.33,5.33,0,0,0-2.13,2.25,7.6,7.6,0,0,0-.78,3.6,8,8,0,0,0,.4,2.57,6.17,6.17,0,0,0,1.2,2.14,5.58,5.58,0,0,0,2,1.45,6.92,6.92,0,0,0,2.84.53,10.2,10.2,0,0,0,1.35-.09,9.85,9.85,0,0,0,1.37-.29,9.11,9.11,0,0,0,1.37-.55,11.34,11.34,0,0,0,1.37-.85l.26,4.31a8.08,8.08,0,0,1-1.36.6,11.19,11.19,0,0,1-1.56.43c-.55.1-1.11.19-1.69.24S491.82,239.26,491.25,239.26Z"></path><path class="cls-1" d="M503.27,238.87V225.28l1.34,2.67H499v-3.34h12.73V228H506.2l1.33-2.67v13.59Z"></path><path class="cls-1" d="M513.93,244.49V224.61l3.79-.22.13,2h.34a4.41,4.41,0,0,1,2.41-1.88,5.46,5.46,0,0,1,1.7-.25,5.07,5.07,0,0,1,3.18,1,6,6,0,0,1,1.94,2.68,10.54,10.54,0,0,1,.66,3.83,10.94,10.94,0,0,1-.62,3.71,6.4,6.4,0,0,1-1.9,2.77,5.37,5.37,0,0,1-4.79.82,4.7,4.7,0,0,1-1.28-.66,5.29,5.29,0,0,1-1-1h-.26v7Zm6.8-8.86a2.52,2.52,0,0,0,1.68-.56,3.2,3.2,0,0,0,1-1.44,5.72,5.72,0,0,0,0-3.8,3.16,3.16,0,0,0-1-1.41,2.62,2.62,0,0,0-1.68-.53,3.11,3.11,0,0,0-1,.15,3,3,0,0,0-.86.44,3,3,0,0,0-.68.69V234a3.52,3.52,0,0,0,.62.84,2.64,2.64,0,0,0,.83.56A2.85,2.85,0,0,0,520.73,235.63Z"></path><path class="cls-1" d="M537.71,239.26a8.57,8.57,0,0,1-3.38-.62A6.43,6.43,0,0,1,532,237a7,7,0,0,1-1.4-2.42,8.78,8.78,0,0,1-.47-2.85,8.28,8.28,0,0,1,.87-3.83,6.4,6.4,0,0,1,2.54-2.67,8.12,8.12,0,0,1,4.13-1,8.9,8.9,0,0,1,3.31.57,6.45,6.45,0,0,1,2.37,1.58,6.64,6.64,0,0,1,1.42,2.39,8.8,8.8,0,0,1,.47,2.94,8.4,8.4,0,0,1-.87,3.86,6.54,6.54,0,0,1-2.54,2.7A7.81,7.81,0,0,1,537.71,239.26Zm0-3.49a2.63,2.63,0,0,0,1.76-.58,3.58,3.58,0,0,0,1-1.51,5.65,5.65,0,0,0,.35-2,5.41,5.41,0,0,0-.4-2.16,3.1,3.1,0,0,0-1.12-1.36,3,3,0,0,0-1.66-.47,2.91,2.91,0,0,0-1.78.53,3.19,3.19,0,0,0-1.08,1.43,5.62,5.62,0,0,0,0,4,3.55,3.55,0,0,0,1.08,1.51A2.78,2.78,0,0,0,537.7,235.77Z"></path><path class="cls-1" d="M547.83,238.87V224.61l4.1-.12v8.66h.26l2.09-3.71,1.36-2.44c.46-.8.91-1.6,1.35-2.39h4.21v14.26h-4.08v-8.55h-.27L554.79,234l-1.36,2.45c-.45.81-.91,1.62-1.37,2.42ZM554.51,223a5.78,5.78,0,0,1-4.22-1.35,5.21,5.21,0,0,1-1.37-3.84l3.39-.14a3.94,3.94,0,0,0,.47,2,1.87,1.87,0,0,0,1.73.78,2.21,2.21,0,0,0,1.31-.35,1.84,1.84,0,0,0,.7-.95,4.52,4.52,0,0,0,.2-1.39h3.39a5.24,5.24,0,0,1-1.35,3.84A5.78,5.78,0,0,1,554.51,223Z"></path><path class="cls-1" d="M570.33,238.87V218.49H575v20.38Zm11.73,0c-.62-.9-1.22-1.75-1.78-2.55L578.65,234,576,230.12h-1.31v-3.68h1.25l2.41-3.15,1.7-2.22,2-2.58h5.42c-.88,1.08-1.75,2.13-2.59,3.17s-1.69,2.09-2.54,3.15l-3.23,4-.09-2.07,3.59,5,1.78,2.46,1.85,2.56c.6.83,1.13,1.55,1.59,2.17Z"></path><path class="cls-1" d="M595.67,239.26a8.57,8.57,0,0,1-3.38-.62,6.43,6.43,0,0,1-2.37-1.67,6.89,6.89,0,0,1-1.4-2.42,8.78,8.78,0,0,1-.47-2.85,8.28,8.28,0,0,1,.87-3.83,6.34,6.34,0,0,1,2.54-2.67,8.12,8.12,0,0,1,4.13-1,8.81,8.81,0,0,1,3.3.57,6.41,6.41,0,0,1,2.38,1.58,6.78,6.78,0,0,1,1.42,2.39,9.06,9.06,0,0,1,.47,2.94,8.4,8.4,0,0,1-.87,3.86,6.5,6.5,0,0,1-2.55,2.7A7.75,7.75,0,0,1,595.67,239.26Zm0-3.49a2.63,2.63,0,0,0,1.76-.58,3.67,3.67,0,0,0,1.05-1.51,5.65,5.65,0,0,0,.35-2,5.41,5.41,0,0,0-.4-2.16,3.1,3.1,0,0,0-1.12-1.36,3,3,0,0,0-1.66-.47,2.89,2.89,0,0,0-1.78.53,3.19,3.19,0,0,0-1.08,1.43,5.62,5.62,0,0,0,0,4,3.55,3.55,0,0,0,1.08,1.51A2.76,2.76,0,0,0,595.66,235.77Z"></path><path class="cls-1" d="M604.89,238.87q.17-1.55.33-3.06c.1-1,.21-2,.31-3l.2-2c.12-1,.23-2.06.34-3.11s.22-2.09.32-3.13h4.7c.29.73.58,1.47.86,2.21s.57,1.48.84,2.2l1.66,4.29h.32l1.61-4.29c.29-.74.57-1.48.85-2.22s.55-1.47.82-2.19h4.61c.11,1,.23,2.06.35,3.13s.23,2.11.35,3.13l.21,2q.16,1.42.33,2.94c.11,1,.23,2,.34,3.06h-4c-.09-.89-.18-1.79-.28-2.7s-.19-1.81-.28-2.7l-.34-3.42h-.31l-1.21,3.63-.86,2.6c-.3.86-.58,1.72-.87,2.59h-3c-.31-.87-.61-1.73-.92-2.58s-.62-1.7-.91-2.54l-1.33-3.7h-.3l-.36,3.35c-.09.92-.19,1.84-.28,2.75l-.27,2.72Z"></path><path class="cls-1" d="M626.8,238.87V224.61h13.28v14.26h-4.26V225.28l1.72,2.67h-8.19l1.73-2.67v13.59Z"></path><path class="cls-1" d="M646.85,239.21a4.34,4.34,0,0,1-2.14-.51,3.63,3.63,0,0,1-1.43-1.45,4.61,4.61,0,0,1-.51-2.22,4.34,4.34,0,0,1,.43-2,3.93,3.93,0,0,1,1.1-1.34,5.31,5.31,0,0,1,1.49-.78,9.63,9.63,0,0,1,1.58-.4l4-.62a2,2,0,0,0-.31-1.29,1.79,1.79,0,0,0-1-.65,5.55,5.55,0,0,0-1.56-.19,8.15,8.15,0,0,0-1.05.08,9.79,9.79,0,0,0-1.2.24c-.41.1-.84.23-1.28.38a12.71,12.71,0,0,0-1.34.56l-.2-3.64c.35-.13.76-.26,1.22-.39s1-.26,1.48-.36,1.1-.2,1.7-.27a15.54,15.54,0,0,1,1.83-.1,7.94,7.94,0,0,1,3.05.52,4,4,0,0,1,1.94,1.64,5.55,5.55,0,0,1,.67,2.91v9.58h-3.64l-.27-1.9h-.33a6.76,6.76,0,0,1-1,1.07,5.13,5.13,0,0,1-1.4.85A5,5,0,0,1,646.85,239.21Zm1.71-3.3a2.46,2.46,0,0,0,1-.23,3.26,3.26,0,0,0,.93-.68,4.45,4.45,0,0,0,.74-1v-2.19a1.81,1.81,0,0,1-.44.24,5.39,5.39,0,0,1-.77.23l-1.41.3a2.32,2.32,0,0,0-.88.35,1.72,1.72,0,0,0-.58.62,1.8,1.8,0,0,0-.21.89,1.34,1.34,0,0,0,.49,1.16A1.93,1.93,0,0,0,648.56,235.91Z"></path><path class="cls-1" d="M658.29,238.87V224.61l4.22-.13v14.39Zm2.56-5.5v-3.3H669v3.3Zm6.46,5.5V224.61h4.22v14.26Z"></path><path class="cls-1" d="M674.83,238.87V224.61l4.1-.12v8.66h.26l2.08-3.71,1.37-2.44,1.35-2.39h4.2v14.26h-4.07v-8.55h-.27L681.79,234l-1.37,2.45c-.45.81-.9,1.62-1.36,2.42Z"></path><path class="cls-1" d="M690.41,238.87c.44-.7.89-1.41,1.35-2.12l1.32-2.1,1.87-2.91,1.33,1.57a7.21,7.21,0,0,1-3-.53,3.54,3.54,0,0,1-1.7-1.5,4.66,4.66,0,0,1-.54-2.3,4.11,4.11,0,0,1,.73-2.59,4,4,0,0,1,2.1-1.37,11.35,11.35,0,0,1,3.3-.41H704v14.26h-4.13V227.69H697.6a3.54,3.54,0,0,0-1.08.17,1.62,1.62,0,0,0-1.17,1.71,1.73,1.73,0,0,0,.24,1,1.47,1.47,0,0,0,.62.52,2.65,2.65,0,0,0,.79.22,6.9,6.9,0,0,0,.75.05h2.7V234h-3.81l2.06-1.26-1.43,2.39c-.37.62-.75,1.24-1.12,1.87L695,238.87Z"></path><polygon class="cls-1" points="164.88 94.35 228.28 157.76 228.28 179.31 164.88 115.9 164.88 94.35"></polygon><polygon class="cls-1" points="71.52 168.29 131.03 108.77 131.03 128.03 71.52 187.54 71.52 168.29"></polygon><polygon class="cls-1" points="164.88 59.6 228.28 123.01 228.28 144.56 164.88 81.15 164.88 59.6"></polygon><polygon class="cls-1" points="32.93 239.33 52.38 219.88 71.52 219.88 71.52 200.74 131.03 141.23 131.03 160.48 52.18 239.33 32.93 239.33"></polygon><polygon class="cls-1" points="164.88 46.4 164.88 23.45 228.28 86.85 228.28 109.81 164.88 46.4"></polygon><polygon class="cls-1" points="137.74 166.98 164.88 166.98 164.88 129.1 228.28 192.51 228.28 239.33 65.39 239.33 137.74 166.98"></polygon><polygon class="cls-2" points="477.79 153.02 474.24 162.25 489.36 162.65 456.5 222.49 521.95 151.23 506.13 151.23 511.62 136.59 497.86 136.59 512.19 66.63 462.83 153.02 477.79 153.02"></polygon></svg> 