<svg xmlns="http://www.w3.org/2000/svg" width="34.915" height="34.914" viewBox="0 0 34.915 34.914">
  <path id="icons8-approval" d="M35.98,17.8l-1.221-.732a2.331,2.331,0,0,1-1.03-1.41.292.292,0,0,0-.009-.032,2.328,2.328,0,0,1,.183-1.754l.692-1.245A1.929,1.929,0,0,0,32.94,9.766L31.5,9.742a2.333,2.333,0,0,1-1.6-.71l-.013-.013a2.322,2.322,0,0,1-.71-1.6l-.024-1.437a1.929,1.929,0,0,0-2.866-1.656l-1.245.692a2.327,2.327,0,0,1-1.754.183l-.032-.009a2.336,2.336,0,0,1-1.41-1.03l-.732-1.221a1.928,1.928,0,0,0-3.308,0l-.729,1.215a2.357,2.357,0,0,1-1.421,1.038l-.019.005a2.343,2.343,0,0,1-1.767-.184l-1.241-.689A1.928,1.928,0,0,0,9.765,5.976L9.74,7.413a2.333,2.333,0,0,1-.71,1.6l-.013.013a2.322,2.322,0,0,1-1.6.71l-1.437.024a1.929,1.929,0,0,0-1.654,2.866l.692,1.245A2.328,2.328,0,0,1,5.2,15.628a.292.292,0,0,1-.009.032,2.336,2.336,0,0,1-1.03,1.41L2.937,17.8a1.928,1.928,0,0,0,0,3.308l1.221.733a2.331,2.331,0,0,1,1.03,1.41.292.292,0,0,0,.009.032,2.328,2.328,0,0,1-.183,1.754l-.692,1.248a1.929,1.929,0,0,0,1.654,2.864l1.437.024a2.333,2.333,0,0,1,1.6.71l.013.013a2.322,2.322,0,0,1,.71,1.6l.024,1.436a1.929,1.929,0,0,0,2.864,1.654l1.245-.692a2.327,2.327,0,0,1,1.754-.183l.032.009a2.336,2.336,0,0,1,1.41,1.03l.732,1.221a1.928,1.928,0,0,0,3.308,0l.732-1.221a2.331,2.331,0,0,1,1.41-1.03l.032-.009a2.328,2.328,0,0,1,1.754.183l1.245.692a1.929,1.929,0,0,0,2.864-1.654l.024-1.436a2.333,2.333,0,0,1,.71-1.6l.013-.013a2.322,2.322,0,0,1,1.6-.71l1.437-.024a1.929,1.929,0,0,0,1.654-2.864L33.9,25.042a2.328,2.328,0,0,1-.183-1.754.292.292,0,0,1,.009-.032,2.336,2.336,0,0,1,1.03-1.41l1.221-.733A1.928,1.928,0,0,0,35.98,17.8Zm-8.858-1.425-8.81,8.81a1.342,1.342,0,0,1-1.9,0l-4.637-4.637a1.343,1.343,0,1,1,1.9-1.9l3.688,3.688,7.86-7.86a1.343,1.343,0,1,1,1.9,1.9Z" transform="translate(-2 -2)" fill="#ffb112"/>
</svg>
