<svg xmlns="http://www.w3.org/2000/svg" width="31.613" height="49.669" viewBox="0 0 31.613 49.669">
  <g id="Сгруппировать_1816" data-name="Сгруппировать 1816" transform="translate(-1047 -10573.831)">
    <path id="icons8-location_marker" d="M34.55,33.687c-13.745-.079-9.229,13.467-13.745,17.982-4.515-4.515,0-18.061-13.745-17.982A2.17,2.17,0,0,1,5,31.458C5,25.724,5,10.1,5,4.253A2.253,2.253,0,0,1,7.259,2H34.352a2.253,2.253,0,0,1,2.258,2.251c0,5.85,0,21.471,0,27.205A2.172,2.172,0,0,1,34.55,33.687Z" transform="translate(1042.001 10571.831)" fill="#ffb112"/>
    <rect id="Прямоугольник_88" data-name="Прямоугольник 88" width="24" height="24" rx="1" transform="translate(1051 10578)" fill="#242b2f"/>
  </g>
</svg>
