<svg xmlns="http://www.w3.org/2000/svg" width="143.041" height="9.704" viewBox="0 0 143.041 9.704">
  <g id="Сгруппировать_1759" data-name="Сгруппировать 1759" transform="translate(-904.657 -3691.106)">
    <path id="Контур_32" data-name="Контур 32" d="M10855,3701.445l9.2-8.642,8.591,8.642" transform="translate(-9950 -1)" fill="none" stroke="#ffb112" stroke-width="1"/>
    <path id="Контур_33" data-name="Контур 33" d="M10855,3701.445l9.2-8.642,8.591,8.642" transform="translate(-9932.207 -1)" fill="none" stroke="#ffb112" stroke-width="1"/>
    <path id="Контур_34" data-name="Контур 34" d="M10855,3701.445l9.2-8.642,8.591,8.642" transform="translate(-9914.414 -1)" fill="none" stroke="#ffb112" stroke-width="1"/>
    <path id="Контур_35" data-name="Контур 35" d="M10855,3701.445l9.2-8.642,8.591,8.642" transform="translate(-9896.621 -1)" fill="none" stroke="#ffb112" stroke-width="1"/>
    <path id="Контур_36" data-name="Контур 36" d="M10855,3701.445l9.2-8.642,8.591,8.642" transform="translate(-9878.828 -1)" fill="none" stroke="#ffb112" stroke-width="1"/>
    <path id="Контур_37" data-name="Контур 37" d="M10855,3701.445l9.2-8.642,8.591,8.642" transform="translate(-9861.035 -1)" fill="none" stroke="#ffb112" stroke-width="1"/>
    <path id="Контур_38" data-name="Контур 38" d="M10855,3701.445l9.2-8.642,8.591,8.642" transform="translate(-9843.242 -1)" fill="none" stroke="#ffb112" stroke-width="1"/>
    <path id="Контур_39" data-name="Контур 39" d="M10855,3701.445l9.2-8.642,8.591,8.642" transform="translate(-9825.449 -1)" fill="none" stroke="#ffb112" stroke-width="1"/>
  </g>
</svg>
